<?xml version="1.0" encoding="UTF-8"?>
<svg xmlns="http://www.w3.org/2000/svg" xmlns:xlink="http://www.w3.org/1999/xlink" width="320.0000mm" height="180.0000mm" viewBox="0 0 1209.4488 680.3150">
<title>Capability Atlas — Earth Science · Geospatial</title>
<rect id="page-background" x="0" y="0" width="1209.4488" height="680.3150" fill="#F4F6F8"/>
<g id="raster-base" aria-label="Cleaned raster base">
</g>
<g id="vector-overlay" aria-label="Editable vector overlay">
<rect id="atlas.header.band" x="0.0000" y="0.0000" width="1209.4488" height="78.6142" fill="#4D7B5D" stroke="none" stroke-width="0.8315px"/>
<text id="atlas.title" x="42.3307" y="37.7953" text-anchor="start" font-family="Arial" font-size="29.333333px" fill="#FFFFFF" font-weight="bold" font-style="normal">Earth Science · Geospatial</text>
<text id="atlas.title.zh" x="42.3307" y="61.9843" text-anchor="start" font-family="Arial" font-size="14.666667px" fill="#FFFFFF" font-weight="normal" font-style="normal">地球科学 · 地理空间</text>
<text id="atlas.badge" x="1162.5827" y="49.1339" text-anchor="end" font-family="Arial" font-size="10.666667px" fill="#FFFFFF" font-weight="bold" font-style="normal">8 EDITABLE FIGURE FAMILIES</text>
<g id="card.01.map" aria-label="GIS map: boundaries · points · legend"><rect id="card.01.map.card" x="27.9685" y="96.0000" width="273.6378" height="267.5906" fill="#FFFFFF" stroke="#D9E0E8" stroke-width="1.3333px"/><rect id="card.01.map.accent" x="27.9685" y="96.0000" width="5.2913" height="267.5906" fill="#4D7B5D" stroke="none" stroke-width="0.8315px"/><text id="card.01.map.title" x="44.5984" y="119.4331" text-anchor="start" font-family="Arial" font-size="14.000000px" fill="#233042" font-weight="bold" font-style="normal">GIS map</text><text id="card.01.map.subtitle" x="44.5984" y="136.8189" text-anchor="start" font-family="Arial" font-size="9.600000px" fill="#6B7788" font-weight="normal" font-style="normal">boundaries · points · legend</text><rect id="card.01.map.map.frame" x="58.2047" y="154.2047" width="213.1654" height="190.4882" fill="#E7EFE7" stroke="#D9E0E8" stroke-width="1.3333px"/><polygon id="card.01.map.region.0" points="68.0315,168.5669 111.8740,161.7638 129.2598,194.2677 100.5354,213.1654 71.0551,201.0709" fill="#BFD8B8" stroke="#FFFFFF" stroke-width="1.6000px" stroke-linecap="butt" stroke-linejoin="miter"/><polygon id="card.01.map.region.1" points="129.2598,194.2677 178.3937,166.2992 207.8740,192.0000 183.6850,222.2362 151.1811,229.7953" fill="#E8D39A" stroke="#FFFFFF" stroke-width="1.6000px" stroke-linecap="butt" stroke-linejoin="miter"/><polygon id="card.01.map.region.2" points="100.5354,213.1654 151.1811,229.7953 139.8425,255.4961 87.6850,251.7165" fill="#B7CDD9" stroke="#FFFFFF" stroke-width="1.6000px" stroke-linecap="butt" stroke-linejoin="miter"/><ellipse id="card.01.map.site.0" cx="98.2677" cy="188.9764" rx="3.7795" ry="3.7795" fill="#4D7B5D" stroke="#FFFFFF" stroke-width="1.3333px"/><ellipse id="card.01.map.site.1" cx="156.4724" cy="210.1417" rx="4.5354" ry="4.5354" fill="#4D7B5D" stroke="#FFFFFF" stroke-width="1.3333px"/><ellipse id="card.01.map.site.2" cx="201.0709" cy="186.7087" rx="5.2913" ry="5.2913" fill="#4D7B5D" stroke="#FFFFFF" stroke-width="1.3333px"/><ellipse id="card.01.map.site.3" cx="126.2362" cy="239.6220" rx="6.0472" ry="6.0472" fill="#4D7B5D" stroke="#FFFFFF" stroke-width="1.3333px"/><text id="card.01.map.north" x="255.4961" y="171.5906" text-anchor="middle" font-family="Arial" font-size="12.000000px" fill="#233042" font-weight="bold" font-style="normal">N</text><polygon id="card.01.map.north.arrow" points="255.4961,176.1260 249.4488,191.2441 255.4961,187.4646 261.5433,191.2441" fill="#233042" stroke="#233042" stroke-width="1.3333px" stroke-linecap="butt" stroke-linejoin="miter"/><line id="card.01.map.scale" x1="213.9213" y1="331.0866" x2="257.7638" y2="331.0866" stroke="#233042" stroke-width="4.0000px" stroke-linecap="round"/></g>
<g id="card.02.landcover" aria-label="Remote sensing: land cover · classification"><rect id="card.02.landcover.card" x="322.0157" y="96.0000" width="273.6378" height="267.5906" fill="#FFFFFF" stroke="#D9E0E8" stroke-width="1.3333px"/><rect id="card.02.landcover.accent" x="322.0157" y="96.0000" width="5.2913" height="267.5906" fill="#4D7B5D" stroke="none" stroke-width="0.8315px"/><text id="card.02.landcover.title" x="338.6457" y="119.4331" text-anchor="start" font-family="Arial" font-size="14.000000px" fill="#233042" font-weight="bold" font-style="normal">Remote sensing</text><text id="card.02.landcover.subtitle" x="338.6457" y="136.8189" text-anchor="start" font-family="Arial" font-size="9.600000px" fill="#6B7788" font-weight="normal" font-style="normal">land cover · classification</text><rect id="card.02.landcover.cell.0.0" x="371.9055" y="161.7638" width="18.1417" height="14.3622" fill="#EFF3F8" stroke="none" stroke-width="0.8315px"/><rect id="card.02.landcover.cell.0.1" x="390.8031" y="161.7638" width="18.1417" height="14.3622" fill="#4D7B5D" stroke="none" stroke-width="0.8315px"/><rect id="card.02.landcover.cell.0.2" x="409.7008" y="161.7638" width="18.1417" height="14.3622" fill="#D95F59" stroke="none" stroke-width="0.8315px"/><rect id="card.02.landcover.cell.0.3" x="428.5984" y="161.7638" width="18.1417" height="14.3622" fill="#C8D7E8" stroke="none" stroke-width="0.8315px"/><rect id="card.02.landcover.cell.0.4" x="447.4961" y="161.7638" width="18.1417" height="14.3622" fill="#F2B84B" stroke="none" stroke-width="0.8315px"/><rect id="card.02.landcover.cell.0.5" x="466.3937" y="161.7638" width="18.1417" height="14.3622" fill="#EFF3F8" stroke="none" stroke-width="0.8315px"/><rect id="card.02.landcover.cell.0.6" x="485.2913" y="161.7638" width="18.1417" height="14.3622" fill="#4D7B5D" stroke="none" stroke-width="0.8315px"/><rect id="card.02.landcover.cell.0.7" x="504.1890" y="161.7638" width="18.1417" height="14.3622" fill="#D95F59" stroke="none" stroke-width="0.8315px"/><rect id="card.02.landcover.cell.1.0" x="371.9055" y="176.8819" width="18.1417" height="14.3622" fill="#F2B84B" stroke="none" stroke-width="0.8315px"/><rect id="card.02.landcover.cell.1.1" x="390.8031" y="176.8819" width="18.1417" height="14.3622" fill="#EFF3F8" stroke="none" stroke-width="0.8315px"/><rect id="card.02.landcover.cell.1.2" x="409.7008" y="176.8819" width="18.1417" height="14.3622" fill="#4D7B5D" stroke="none" stroke-width="0.8315px"/><rect id="card.02.landcover.cell.1.3" x="428.5984" y="176.8819" width="18.1417" height="14.3622" fill="#D95F59" stroke="none" stroke-width="0.8315px"/><rect id="card.02.landcover.cell.1.4" x="447.4961" y="176.8819" width="18.1417" height="14.3622" fill="#C8D7E8" stroke="none" stroke-width="0.8315px"/><rect id="card.02.landcover.cell.1.5" x="466.3937" y="176.8819" width="18.1417" height="14.3622" fill="#F2B84B" stroke="none" stroke-width="0.8315px"/><rect id="card.02.landcover.cell.1.6" x="485.2913" y="176.8819" width="18.1417" height="14.3622" fill="#EFF3F8" stroke="none" stroke-width="0.8315px"/><rect id="card.02.landcover.cell.1.7" x="504.1890" y="176.8819" width="18.1417" height="14.3622" fill="#4D7B5D" stroke="none" stroke-width="0.8315px"/><rect id="card.02.landcover.cell.2.0" x="371.9055" y="192.0000" width="18.1417" height="14.3622" fill="#C8D7E8" stroke="none" stroke-width="0.8315px"/><rect id="card.02.landcover.cell.2.1" x="390.8031" y="192.0000" width="18.1417" height="14.3622" fill="#F2B84B" stroke="none" stroke-width="0.8315px"/><rect id="card.02.landcover.cell.2.2" x="409.7008" y="192.0000" width="18.1417" height="14.3622" fill="#EFF3F8" stroke="none" stroke-width="0.8315px"/><rect id="card.02.landcover.cell.2.3" x="428.5984" y="192.0000" width="18.1417" height="14.3622" fill="#4D7B5D" stroke="none" stroke-width="0.8315px"/><rect id="card.02.landcover.cell.2.4" x="447.4961" y="192.0000" width="18.1417" height="14.3622" fill="#D95F59" stroke="none" stroke-width="0.8315px"/><rect id="card.02.landcover.cell.2.5" x="466.3937" y="192.0000" width="18.1417" height="14.3622" fill="#C8D7E8" stroke="none" stroke-width="0.8315px"/><rect id="card.02.landcover.cell.2.6" x="485.2913" y="192.0000" width="18.1417" height="14.3622" fill="#F2B84B" stroke="none" stroke-width="0.8315px"/><rect id="card.02.landcover.cell.2.7" x="504.1890" y="192.0000" width="18.1417" height="14.3622" fill="#EFF3F8" stroke="none" stroke-width="0.8315px"/><rect id="card.02.landcover.cell.3.0" x="371.9055" y="207.1181" width="18.1417" height="14.3622" fill="#D95F59" stroke="none" stroke-width="0.8315px"/><rect id="card.02.landcover.cell.3.1" x="390.8031" y="207.1181" width="18.1417" height="14.3622" fill="#C8D7E8" stroke="none" stroke-width="0.8315px"/><rect id="card.02.landcover.cell.3.2" x="409.7008" y="207.1181" width="18.1417" height="14.3622" fill="#F2B84B" stroke="none" stroke-width="0.8315px"/><rect id="card.02.landcover.cell.3.3" x="428.5984" y="207.1181" width="18.1417" height="14.3622" fill="#EFF3F8" stroke="none" stroke-width="0.8315px"/><rect id="card.02.landcover.cell.3.4" x="447.4961" y="207.1181" width="18.1417" height="14.3622" fill="#4D7B5D" stroke="none" stroke-width="0.8315px"/><rect id="card.02.landcover.cell.3.5" x="466.3937" y="207.1181" width="18.1417" height="14.3622" fill="#D95F59" stroke="none" stroke-width="0.8315px"/><rect id="card.02.landcover.cell.3.6" x="485.2913" y="207.1181" width="18.1417" height="14.3622" fill="#C8D7E8" stroke="none" stroke-width="0.8315px"/><rect id="card.02.landcover.cell.3.7" x="504.1890" y="207.1181" width="18.1417" height="14.3622" fill="#F2B84B" stroke="none" stroke-width="0.8315px"/><rect id="card.02.landcover.cell.4.0" x="371.9055" y="222.2362" width="18.1417" height="14.3622" fill="#4D7B5D" stroke="none" stroke-width="0.8315px"/><rect id="card.02.landcover.cell.4.1" x="390.8031" y="222.2362" width="18.1417" height="14.3622" fill="#D95F59" stroke="none" stroke-width="0.8315px"/><rect id="card.02.landcover.cell.4.2" x="409.7008" y="222.2362" width="18.1417" height="14.3622" fill="#C8D7E8" stroke="none" stroke-width="0.8315px"/><rect id="card.02.landcover.cell.4.3" x="428.5984" y="222.2362" width="18.1417" height="14.3622" fill="#F2B84B" stroke="none" stroke-width="0.8315px"/><rect id="card.02.landcover.cell.4.4" x="447.4961" y="222.2362" width="18.1417" height="14.3622" fill="#EFF3F8" stroke="none" stroke-width="0.8315px"/><rect id="card.02.landcover.cell.4.5" x="466.3937" y="222.2362" width="18.1417" height="14.3622" fill="#4D7B5D" stroke="none" stroke-width="0.8315px"/><rect id="card.02.landcover.cell.4.6" x="485.2913" y="222.2362" width="18.1417" height="14.3622" fill="#D95F59" stroke="none" stroke-width="0.8315px"/><rect id="card.02.landcover.cell.4.7" x="504.1890" y="222.2362" width="18.1417" height="14.3622" fill="#C8D7E8" stroke="none" stroke-width="0.8315px"/><rect id="card.02.landcover.cell.5.0" x="371.9055" y="237.3543" width="18.1417" height="14.3622" fill="#EFF3F8" stroke="none" stroke-width="0.8315px"/><rect id="card.02.landcover.cell.5.1" x="390.8031" y="237.3543" width="18.1417" height="14.3622" fill="#4D7B5D" stroke="none" stroke-width="0.8315px"/><rect id="card.02.landcover.cell.5.2" x="409.7008" y="237.3543" width="18.1417" height="14.3622" fill="#D95F59" stroke="none" stroke-width="0.8315px"/><rect id="card.02.landcover.cell.5.3" x="428.5984" y="237.3543" width="18.1417" height="14.3622" fill="#C8D7E8" stroke="none" stroke-width="0.8315px"/><rect id="card.02.landcover.cell.5.4" x="447.4961" y="237.3543" width="18.1417" height="14.3622" fill="#F2B84B" stroke="none" stroke-width="0.8315px"/><rect id="card.02.landcover.cell.5.5" x="466.3937" y="237.3543" width="18.1417" height="14.3622" fill="#EFF3F8" stroke="none" stroke-width="0.8315px"/><rect id="card.02.landcover.cell.5.6" x="485.2913" y="237.3543" width="18.1417" height="14.3622" fill="#4D7B5D" stroke="none" stroke-width="0.8315px"/><rect id="card.02.landcover.cell.5.7" x="504.1890" y="237.3543" width="18.1417" height="14.3622" fill="#D95F59" stroke="none" stroke-width="0.8315px"/><text id="card.02.landcover.low" x="371.9055" y="266.0787" text-anchor="start" font-family="Arial" font-size="8.666667px" fill="#6B7788" font-weight="normal" font-style="normal">low</text><text id="card.02.landcover.high" x="523.0866" y="266.0787" text-anchor="end" font-family="Arial" font-size="8.666667px" fill="#6B7788" font-weight="normal" font-style="normal">high</text></g>
<g id="card.03.dem" aria-label="Terrain: DEM · contours · hillshade"><rect id="card.03.dem.card" x="616.0630" y="96.0000" width="273.6378" height="267.5906" fill="#FFFFFF" stroke="#D9E0E8" stroke-width="1.3333px"/><rect id="card.03.dem.accent" x="616.0630" y="96.0000" width="5.2913" height="267.5906" fill="#4D7B5D" stroke="none" stroke-width="0.8315px"/><text id="card.03.dem.title" x="632.6929" y="119.4331" text-anchor="start" font-family="Arial" font-size="14.000000px" fill="#233042" font-weight="bold" font-style="normal">Terrain</text><text id="card.03.dem.subtitle" x="632.6929" y="136.8189" text-anchor="start" font-family="Arial" font-size="9.600000px" fill="#6B7788" font-weight="normal" font-style="normal">DEM · contours · hillshade</text><rect id="card.03.dem.map.frame" x="646.2992" y="154.2047" width="213.1654" height="190.4882" fill="#E7EFE7" stroke="#D9E0E8" stroke-width="1.3333px"/><polygon id="card.03.dem.region.0" points="656.1260,168.5669 699.9685,161.7638 717.3543,194.2677 688.6299,213.1654 659.1496,201.0709" fill="#BFD8B8" stroke="#FFFFFF" stroke-width="1.6000px" stroke-linecap="butt" stroke-linejoin="miter"/><polygon id="card.03.dem.region.1" points="717.3543,194.2677 766.4882,166.2992 795.9685,192.0000 771.7795,222.2362 739.2756,229.7953" fill="#E8D39A" stroke="#FFFFFF" stroke-width="1.6000px" stroke-linecap="butt" stroke-linejoin="miter"/><polygon id="card.03.dem.region.2" points="688.6299,213.1654 739.2756,229.7953 727.9370,255.4961 675.7795,251.7165" fill="#B7CDD9" stroke="#FFFFFF" stroke-width="1.6000px" stroke-linecap="butt" stroke-linejoin="miter"/><path id="card.03.dem.contour.0" d="M 730.1700 204.6637 A 21.1654 21.1654 0 0 1 771.6990 208.2971" fill="none" stroke="#4D7B5D" stroke-width="1.2000px" stroke-linecap="butt" stroke-linejoin="miter"/><path id="card.03.dem.contour.1" d="M 718.4876 201.5335 A 33.2598 33.2598 0 0 1 783.7475 207.2429" fill="none" stroke="#4D7B5D" stroke-width="1.2000px" stroke-linecap="butt" stroke-linejoin="miter"/><path id="card.03.dem.contour.2" d="M 706.8053 198.4032 A 45.3543 45.3543 0 0 1 795.7959 206.1888" fill="none" stroke="#4D7B5D" stroke-width="1.2000px" stroke-linecap="butt" stroke-linejoin="miter"/><path id="card.03.dem.contour.3" d="M 695.1229 195.2729 A 57.4488 57.4488 0 0 1 807.8444 205.1347" fill="none" stroke="#4D7B5D" stroke-width="1.2000px" stroke-linecap="butt" stroke-linejoin="miter"/><text id="card.03.dem.north" x="843.5906" y="171.5906" text-anchor="middle" font-family="Arial" font-size="12.000000px" fill="#233042" font-weight="bold" font-style="normal">N</text><polygon id="card.03.dem.north.arrow" points="843.5906,176.1260 837.5433,191.2441 843.5906,187.4646 849.6378,191.2441" fill="#233042" stroke="#233042" stroke-width="1.3333px" stroke-linecap="butt" stroke-linejoin="miter"/><line id="card.03.dem.scale" x1="802.0157" y1="331.0866" x2="845.8583" y2="331.0866" stroke="#233042" stroke-width="4.0000px" stroke-linecap="round"/></g>
<g id="card.04.geology" aria-label="Geology: units · faults · contacts"><rect id="card.04.geology.card" x="910.1102" y="96.0000" width="273.6378" height="267.5906" fill="#FFFFFF" stroke="#D9E0E8" stroke-width="1.3333px"/><rect id="card.04.geology.accent" x="910.1102" y="96.0000" width="5.2913" height="267.5906" fill="#4D7B5D" stroke="none" stroke-width="0.8315px"/><text id="card.04.geology.title" x="926.7402" y="119.4331" text-anchor="start" font-family="Arial" font-size="14.000000px" fill="#233042" font-weight="bold" font-style="normal">Geology</text><text id="card.04.geology.subtitle" x="926.7402" y="136.8189" text-anchor="start" font-family="Arial" font-size="9.600000px" fill="#6B7788" font-weight="normal" font-style="normal">units · faults · contacts</text><rect id="card.04.geology.map.frame" x="940.3465" y="154.2047" width="213.1654" height="190.4882" fill="#E7EFE7" stroke="#D9E0E8" stroke-width="1.3333px"/><polygon id="card.04.geology.region.0" points="950.1732,168.5669 994.0157,161.7638 1011.4016,194.2677 982.6772,213.1654 953.1969,201.0709" fill="#BFD8B8" stroke="#FFFFFF" stroke-width="1.6000px" stroke-linecap="butt" stroke-linejoin="miter"/><polygon id="card.04.geology.region.1" points="1011.4016,194.2677 1060.5354,166.2992 1090.0157,192.0000 1065.8268,222.2362 1033.3228,229.7953" fill="#E8D39A" stroke="#FFFFFF" stroke-width="1.6000px" stroke-linecap="butt" stroke-linejoin="miter"/><polygon id="card.04.geology.region.2" points="982.6772,213.1654 1033.3228,229.7953 1021.9843,255.4961 969.8268,251.7165" fill="#B7CDD9" stroke="#FFFFFF" stroke-width="1.6000px" stroke-linecap="butt" stroke-linejoin="miter"/><path id="card.04.geology.contour.0" d="M 1024.2173 204.6637 A 21.1654 21.1654 0 0 1 1065.7462 208.2971" fill="none" stroke="#4D7B5D" stroke-width="1.2000px" stroke-linecap="butt" stroke-linejoin="miter"/><path id="card.04.geology.contour.1" d="M 1012.5349 201.5335 A 33.2598 33.2598 0 0 1 1077.7947 207.2429" fill="none" stroke="#4D7B5D" stroke-width="1.2000px" stroke-linecap="butt" stroke-linejoin="miter"/><path id="card.04.geology.contour.2" d="M 1000.8525 198.4032 A 45.3543 45.3543 0 0 1 1089.8432 206.1888" fill="none" stroke="#4D7B5D" stroke-width="1.2000px" stroke-linecap="butt" stroke-linejoin="miter"/><path id="card.04.geology.contour.3" d="M 989.1701 195.2729 A 57.4488 57.4488 0 0 1 1101.8916 205.1347" fill="none" stroke="#4D7B5D" stroke-width="1.2000px" stroke-linecap="butt" stroke-linejoin="miter"/><text id="card.04.geology.north" x="1137.6378" y="171.5906" text-anchor="middle" font-family="Arial" font-size="12.000000px" fill="#233042" font-weight="bold" font-style="normal">N</text><polygon id="card.04.geology.north.arrow" points="1137.6378,176.1260 1131.5906,191.2441 1137.6378,187.4646 1143.6850,191.2441" fill="#233042" stroke="#233042" stroke-width="1.3333px" stroke-linecap="butt" stroke-linejoin="miter"/><line id="card.04.geology.scale" x1="1096.0630" y1="331.0866" x2="1139.9055" y2="331.0866" stroke="#233042" stroke-width="4.0000px" stroke-linecap="round"/></g>
<g id="card.05.seismic" aria-label="Seismic map: epicenters · stations · magnitude"><rect id="card.05.seismic.card" x="27.9685" y="382.4882" width="273.6378" height="267.5906" fill="#FFFFFF" stroke="#D9E0E8" stroke-width="1.3333px"/><rect id="card.05.seismic.accent" x="27.9685" y="382.4882" width="5.2913" height="267.5906" fill="#4D7B5D" stroke="none" stroke-width="0.8315px"/><text id="card.05.seismic.title" x="44.5984" y="405.9213" text-anchor="start" font-family="Arial" font-size="14.000000px" fill="#233042" font-weight="bold" font-style="normal">Seismic map</text><text id="card.05.seismic.subtitle" x="44.5984" y="423.3071" text-anchor="start" font-family="Arial" font-size="9.600000px" fill="#6B7788" font-weight="normal" font-style="normal">epicenters · stations · magnitude</text><rect id="card.05.seismic.map.frame" x="58.2047" y="440.6929" width="213.1654" height="190.4882" fill="#E7EFE7" stroke="#D9E0E8" stroke-width="1.3333px"/><polygon id="card.05.seismic.region.0" points="68.0315,455.0551 111.8740,448.2520 129.2598,480.7559 100.5354,499.6535 71.0551,487.5591" fill="#BFD8B8" stroke="#FFFFFF" stroke-width="1.6000px" stroke-linecap="butt" stroke-linejoin="miter"/><polygon id="card.05.seismic.region.1" points="129.2598,480.7559 178.3937,452.7874 207.8740,478.4882 183.6850,508.7244 151.1811,516.2835" fill="#E8D39A" stroke="#FFFFFF" stroke-width="1.6000px" stroke-linecap="butt" stroke-linejoin="miter"/><polygon id="card.05.seismic.region.2" points="100.5354,499.6535 151.1811,516.2835 139.8425,541.9843 87.6850,538.2047" fill="#B7CDD9" stroke="#FFFFFF" stroke-width="1.6000px" stroke-linecap="butt" stroke-linejoin="miter"/><ellipse id="card.05.seismic.site.0" cx="98.2677" cy="475.4646" rx="3.7795" ry="3.7795" fill="#4D7B5D" stroke="#FFFFFF" stroke-width="1.3333px"/><ellipse id="card.05.seismic.site.1" cx="156.4724" cy="496.6299" rx="4.5354" ry="4.5354" fill="#4D7B5D" stroke="#FFFFFF" stroke-width="1.3333px"/><ellipse id="card.05.seismic.site.2" cx="201.0709" cy="473.1969" rx="5.2913" ry="5.2913" fill="#4D7B5D" stroke="#FFFFFF" stroke-width="1.3333px"/><ellipse id="card.05.seismic.site.3" cx="126.2362" cy="526.1102" rx="6.0472" ry="6.0472" fill="#4D7B5D" stroke="#FFFFFF" stroke-width="1.3333px"/><text id="card.05.seismic.north" x="255.4961" y="458.0787" text-anchor="middle" font-family="Arial" font-size="12.000000px" fill="#233042" font-weight="bold" font-style="normal">N</text><polygon id="card.05.seismic.north.arrow" points="255.4961,462.6142 249.4488,477.7323 255.4961,473.9528 261.5433,477.7323" fill="#233042" stroke="#233042" stroke-width="1.3333px" stroke-linecap="butt" stroke-linejoin="miter"/><line id="card.05.seismic.scale" x1="213.9213" y1="617.5748" x2="257.7638" y2="617.5748" stroke="#233042" stroke-width="4.0000px" stroke-linecap="round"/></g>
<g id="card.06.section" aria-label="Cross-section: layers · section line · depth"><rect id="card.06.section.card" x="322.0157" y="382.4882" width="273.6378" height="267.5906" fill="#FFFFFF" stroke="#D9E0E8" stroke-width="1.3333px"/><rect id="card.06.section.accent" x="322.0157" y="382.4882" width="5.2913" height="267.5906" fill="#4D7B5D" stroke="none" stroke-width="0.8315px"/><text id="card.06.section.title" x="338.6457" y="405.9213" text-anchor="start" font-family="Arial" font-size="14.000000px" fill="#233042" font-weight="bold" font-style="normal">Cross-section</text><text id="card.06.section.subtitle" x="338.6457" y="423.3071" text-anchor="start" font-family="Arial" font-size="9.600000px" fill="#6B7788" font-weight="normal" font-style="normal">layers · section line · depth</text><rect id="card.06.section.map.frame" x="352.2520" y="440.6929" width="213.1654" height="190.4882" fill="#E7EFE7" stroke="#D9E0E8" stroke-width="1.3333px"/><polygon id="card.06.section.region.0" points="362.0787,455.0551 405.9213,448.2520 423.3071,480.7559 394.5827,499.6535 365.1024,487.5591" fill="#BFD8B8" stroke="#FFFFFF" stroke-width="1.6000px" stroke-linecap="butt" stroke-linejoin="miter"/><polygon id="card.06.section.region.1" points="423.3071,480.7559 472.4409,452.7874 501.9213,478.4882 477.7323,508.7244 445.2283,516.2835" fill="#E8D39A" stroke="#FFFFFF" stroke-width="1.6000px" stroke-linecap="butt" stroke-linejoin="miter"/><polygon id="card.06.section.region.2" points="394.5827,499.6535 445.2283,516.2835 433.8898,541.9843 381.7323,538.2047" fill="#B7CDD9" stroke="#FFFFFF" stroke-width="1.6000px" stroke-linecap="butt" stroke-linejoin="miter"/><path id="card.06.section.contour.0" d="M 436.1228 491.1519 A 21.1654 21.1654 0 0 1 477.6517 494.7852" fill="none" stroke="#4D7B5D" stroke-width="1.2000px" stroke-linecap="butt" stroke-linejoin="miter"/><path id="card.06.section.contour.1" d="M 424.4404 488.0216 A 33.2598 33.2598 0 0 1 489.7002 493.7311" fill="none" stroke="#4D7B5D" stroke-width="1.2000px" stroke-linecap="butt" stroke-linejoin="miter"/><path id="card.06.section.contour.2" d="M 412.7580 484.8914 A 45.3543 45.3543 0 0 1 501.7487 492.6770" fill="none" stroke="#4D7B5D" stroke-width="1.2000px" stroke-linecap="butt" stroke-linejoin="miter"/><path id="card.06.section.contour.3" d="M 401.0756 481.7611 A 57.4488 57.4488 0 0 1 513.7971 491.6229" fill="none" stroke="#4D7B5D" stroke-width="1.2000px" stroke-linecap="butt" stroke-linejoin="miter"/><text id="card.06.section.north" x="549.5433" y="458.0787" text-anchor="middle" font-family="Arial" font-size="12.000000px" fill="#233042" font-weight="bold" font-style="normal">N</text><polygon id="card.06.section.north.arrow" points="549.5433,462.6142 543.4961,477.7323 549.5433,473.9528 555.5906,477.7323" fill="#233042" stroke="#233042" stroke-width="1.3333px" stroke-linecap="butt" stroke-linejoin="miter"/><line id="card.06.section.scale" x1="507.9685" y1="617.5748" x2="551.8110" y2="617.5748" stroke="#233042" stroke-width="4.0000px" stroke-linecap="round"/></g>
<g id="card.07.graticule" aria-label="Map framework: graticule · north arrow · scale"><rect id="card.07.graticule.card" x="616.0630" y="382.4882" width="273.6378" height="267.5906" fill="#FFFFFF" stroke="#D9E0E8" stroke-width="1.3333px"/><rect id="card.07.graticule.accent" x="616.0630" y="382.4882" width="5.2913" height="267.5906" fill="#4D7B5D" stroke="none" stroke-width="0.8315px"/><text id="card.07.graticule.title" x="632.6929" y="405.9213" text-anchor="start" font-family="Arial" font-size="14.000000px" fill="#233042" font-weight="bold" font-style="normal">Map framework</text><text id="card.07.graticule.subtitle" x="632.6929" y="423.3071" text-anchor="start" font-family="Arial" font-size="9.600000px" fill="#6B7788" font-weight="normal" font-style="normal">graticule · north arrow · scale</text><rect id="card.07.graticule.map.frame" x="646.2992" y="440.6929" width="213.1654" height="190.4882" fill="#E7EFE7" stroke="#D9E0E8" stroke-width="1.3333px"/><polygon id="card.07.graticule.region.0" points="656.1260,455.0551 699.9685,448.2520 717.3543,480.7559 688.6299,499.6535 659.1496,487.5591" fill="#BFD8B8" stroke="#FFFFFF" stroke-width="1.6000px" stroke-linecap="butt" stroke-linejoin="miter"/><polygon id="card.07.graticule.region.1" points="717.3543,480.7559 766.4882,452.7874 795.9685,478.4882 771.7795,508.7244 739.2756,516.2835" fill="#E8D39A" stroke="#FFFFFF" stroke-width="1.6000px" stroke-linecap="butt" stroke-linejoin="miter"/><polygon id="card.07.graticule.region.2" points="688.6299,499.6535 739.2756,516.2835 727.9370,541.9843 675.7795,538.2047" fill="#B7CDD9" stroke="#FFFFFF" stroke-width="1.6000px" stroke-linecap="butt" stroke-linejoin="miter"/><line id="card.07.graticule.lon.0" x1="684.0945" y1="443.7165" x2="684.0945" y2="627.4016" stroke="#FFFFFF" stroke-width="1.0667px" stroke-linecap="round"/><line id="card.07.graticule.lat.0" x1="648.5669" y1="466.3937" x2="857.1969" y2="466.3937" stroke="#FFFFFF" stroke-width="1.0667px" stroke-linecap="round"/><line id="card.07.graticule.lon.1" x1="730.9606" y1="443.7165" x2="730.9606" y2="627.4016" stroke="#FFFFFF" stroke-width="1.0667px" stroke-linecap="round"/><line id="card.07.graticule.lat.1" x1="648.5669" y1="493.6063" x2="857.1969" y2="493.6063" stroke="#FFFFFF" stroke-width="1.0667px" stroke-linecap="round"/><line id="card.07.graticule.lon.2" x1="777.8268" y1="443.7165" x2="777.8268" y2="627.4016" stroke="#FFFFFF" stroke-width="1.0667px" stroke-linecap="round"/><line id="card.07.graticule.lat.2" x1="648.5669" y1="520.8189" x2="857.1969" y2="520.8189" stroke="#FFFFFF" stroke-width="1.0667px" stroke-linecap="round"/><text id="card.07.graticule.north" x="843.5906" y="458.0787" text-anchor="middle" font-family="Arial" font-size="12.000000px" fill="#233042" font-weight="bold" font-style="normal">N</text><polygon id="card.07.graticule.north.arrow" points="843.5906,462.6142 837.5433,477.7323 843.5906,473.9528 849.6378,477.7323" fill="#233042" stroke="#233042" stroke-width="1.3333px" stroke-linecap="butt" stroke-linejoin="miter"/><line id="card.07.graticule.scale" x1="802.0157" y1="617.5748" x2="845.8583" y2="617.5748" stroke="#233042" stroke-width="4.0000px" stroke-linecap="round"/></g>
<g id="card.08.map_legend" aria-label="Cartography: symbols · color key · annotation"><rect id="card.08.map_legend.card" x="910.1102" y="382.4882" width="273.6378" height="267.5906" fill="#FFFFFF" stroke="#D9E0E8" stroke-width="1.3333px"/><rect id="card.08.map_legend.accent" x="910.1102" y="382.4882" width="5.2913" height="267.5906" fill="#4D7B5D" stroke="none" stroke-width="0.8315px"/><text id="card.08.map_legend.title" x="926.7402" y="405.9213" text-anchor="start" font-family="Arial" font-size="14.000000px" fill="#233042" font-weight="bold" font-style="normal">Cartography</text><text id="card.08.map_legend.subtitle" x="926.7402" y="423.3071" text-anchor="start" font-family="Arial" font-size="9.600000px" fill="#6B7788" font-weight="normal" font-style="normal">symbols · color key · annotation</text><rect id="card.08.map_legend.map.frame" x="940.3465" y="440.6929" width="213.1654" height="190.4882" fill="#E7EFE7" stroke="#D9E0E8" stroke-width="1.3333px"/><polygon id="card.08.map_legend.region.0" points="950.1732,455.0551 994.0157,448.2520 1011.4016,480.7559 982.6772,499.6535 953.1969,487.5591" fill="#BFD8B8" stroke="#FFFFFF" stroke-width="1.6000px" stroke-linecap="butt" stroke-linejoin="miter"/><polygon id="card.08.map_legend.region.1" points="1011.4016,480.7559 1060.5354,452.7874 1090.0157,478.4882 1065.8268,508.7244 1033.3228,516.2835" fill="#E8D39A" stroke="#FFFFFF" stroke-width="1.6000px" stroke-linecap="butt" stroke-linejoin="miter"/><polygon id="card.08.map_legend.region.2" points="982.6772,499.6535 1033.3228,516.2835 1021.9843,541.9843 969.8268,538.2047" fill="#B7CDD9" stroke="#FFFFFF" stroke-width="1.6000px" stroke-linecap="butt" stroke-linejoin="miter"/><ellipse id="card.08.map_legend.site.0" cx="980.4094" cy="475.4646" rx="3.7795" ry="3.7795" fill="#4D7B5D" stroke="#FFFFFF" stroke-width="1.3333px"/><ellipse id="card.08.map_legend.site.1" cx="1038.6142" cy="496.6299" rx="4.5354" ry="4.5354" fill="#4D7B5D" stroke="#FFFFFF" stroke-width="1.3333px"/><ellipse id="card.08.map_legend.site.2" cx="1083.2126" cy="473.1969" rx="5.2913" ry="5.2913" fill="#4D7B5D" stroke="#FFFFFF" stroke-width="1.3333px"/><ellipse id="card.08.map_legend.site.3" cx="1008.3780" cy="526.1102" rx="6.0472" ry="6.0472" fill="#4D7B5D" stroke="#FFFFFF" stroke-width="1.3333px"/><text id="card.08.map_legend.north" x="1137.6378" y="458.0787" text-anchor="middle" font-family="Arial" font-size="12.000000px" fill="#233042" font-weight="bold" font-style="normal">N</text><polygon id="card.08.map_legend.north.arrow" points="1137.6378,462.6142 1131.5906,477.7323 1137.6378,473.9528 1143.6850,477.7323" fill="#233042" stroke="#233042" stroke-width="1.3333px" stroke-linecap="butt" stroke-linejoin="miter"/><line id="card.08.map_legend.scale" x1="1096.0630" y1="617.5748" x2="1139.9055" y2="617.5748" stroke="#233042" stroke-width="4.0000px" stroke-linecap="round"/></g>
<text id="atlas.footer" x="604.7244" y="668.2205" text-anchor="middle" font-family="Arial" font-size="10.000000px" fill="#667384" font-weight="normal" font-style="normal">Synthetic capability demonstration · live text · semantic IDs · zero raster</text>
</g>
</svg>
